PathFileType  4	(X/Y/Z) C:\Users\antoi\Documents\MyRepositories\mobilecap\ResultsAnalysis
DataRate	CameraRate	NumFrames	NumMarkers	Units	OrigDataRate	OrigDataStartFrame	OrigNumFrames
100.0	100.0	7	51	mm	100.0	1	153
Frame#	Time	r_knee			r_shank_antsup			r_ankle			r_calc			r_5meta			r_toe			L_knee			L_shank_antsup			L_ankle			L_calc			L_5meta			L_toe			r_sh2			r_sh3			r_sh4			L_sh2			L_sh3			r_thigh1			r_thigh2			r_thigh3			r_thigh4			r_thigh5			L_thigh1			L_thigh2			L_thigh3			L_thigh4			r.ASIS			r.PSIS			L.ASIS			L.PSIS			C7			R_Shoulder			L_Shoulder			R_Sternum			L_Sternum			R_humerus			R_elbow_med			R_elbow_lat			R_forearm			R_wrist_radius			R_wrist_ulna			L_humerus			L_elbow_med			L_elbow_lat			L_forearm			L_wrist_radius			L_wrist_ulna			R_HJC			L_HJC			R_HJC_reg			L_HJC_reg			
		X1	Y1	Z1	X2	Y2	Z2	X3	Y3	Z3	X4	Y4	Z4	X5	Y5	Z5	X6	Y6	Z6	X7	Y7	Z7	X8	Y8	Z8	X9	Y9	Z9	X10	Y10	Z10	X11	Y11	Z11	X12	Y12	Z12	X13	Y13	Z13	X14	Y14	Z14	X15	Y15	Z15	X16	Y16	Z16	X17	Y17	Z17	X18	Y18	Z18	X19	Y19	Z19	X20	Y20	Z20	X21	Y21	Z21	X22	Y22	Z22	X23	Y23	Z23	X24	Y24	Z24	X25	Y25	Z25	X26	Y26	Z26	X27	Y27	Z27	X28	Y28	Z28	X29	Y29	Z29	X30	Y30	Z30	X31	Y31	Z31	X32	Y32	Z32	X33	Y33	Z33	X34	Y34	Z34	X35	Y35	Z35	X36	Y36	Z36	X37	Y37	Z37	X38	Y38	Z38	X39	Y39	Z39	X40	Y40	Z40	X41	Y41	Z41	X42	Y42	Z42	X43	Y43	Z43	X44	Y44	Z44	X45	Y45	Z45	X46	Y46	Z46	X47	Y47	Z47	X48	Y48	Z48	X49	Y49	Z49	X50	Y50	Z50	X51	Y51	Z51	

1	0.00000000	180.35413	595.22336	-94.91624	240.23271	456.24918	-107.51229	253.69495	92.02669	-125.57215	204.59545	68.37477	-193.58644	395.35674	48.59976	-96.75865	431.93434	85.42219	-142.45612	-139.93190	570.54263	-366.41964	-205.54388	373.15364	-326.26799	-448.48829	174.98835	-312.99146	-513.18953	171.23466	-244.22809	-361.91075	45.61739	-354.67503	-311.76103	54.36255	-298.12499	262.64670	345.96272	-118.35857	177.90086	437.50106	-66.75230	196.55729	325.90654	-71.08397	-254.40575	412.22871	-386.98500	-329.22552	323.27100	-361.07397	106.01025	869.83787	-49.01337	160.49459	775.03633	-60.16888	114.27402	723.80512	-54.80045	8.15261	822.59172	-75.02382	62.95553	718.10541	-76.08040	4.47089	845.12511	-392.55495	-27.69626	715.41222	-382.93844	-101.37155	872.97280	-407.19280	-133.33879	738.93860	-399.79655	68.21527	1132.95224	-91.92468	-123.32379	1156.94747	-176.01100	62.74263	1126.19256	-370.11180	-123.36169	1161.16352	-268.10253	-78.20410	1648.37382	-205.27964	-20.28263	1587.72927	-31.21026	-7.50133	1628.90232	-380.36051	63.30616	1559.23148	-175.34878	68.30167	1565.85828	-232.11925	-69.57462	1317.81312	21.42040	-167.20829	1216.18740	-29.92796	-163.56901	1234.32530	42.80879	-72.45718	1039.12851	68.20595	-36.44009	948.97216	65.64206	-68.92293	945.76294	86.06046	-3.13089	1336.29775	-456.57801	-96.93788	1260.08785	-419.68353	-67.86627	1259.16428	-490.64919	28.16820	1075.84373	-512.53561	63.84557	1003.61751	-503.42366	38.62508	1003.52464	-529.39351	-8.27387	1034.94137	-127.59761	-19.69501	1035.51069	-324.74241	0.14355	1037.08244	-135.97536	0.06809	1045.48335	-319.47612	
2	0.01000000	192.40713	596.68555	-93.58325	250.33403	456.51103	-106.62371	255.17310	92.16814	-125.45952	205.33935	69.14325	-193.22611	396.49849	47.11486	-96.98395	433.76941	83.19605	-142.78612	-118.59202	569.46118	-368.02658	-188.63861	373.78391	-328.84032	-437.27680	183.92436	-313.30783	-500.83473	184.33926	-243.83034	-359.57269	49.06277	-354.41011	-308.82660	54.97858	-297.86300	270.26737	345.88971	-117.72924	188.21404	439.02391	-64.88222	204.77340	327.11689	-69.03082	-237.73318	415.06693	-387.96930	-314.53284	328.55897	-361.91375	119.20746	872.50814	-47.96202	173.33196	777.38008	-58.56277	126.94672	725.98329	-53.34456	20.86790	824.52916	-73.18023	75.36977	720.49353	-74.31256	20.86642	846.35984	-392.18349	-8.82549	715.74875	-384.09200	-85.50611	872.12770	-405.45150	-115.15252	738.00607	-398.69022	81.00709	1135.27455	-90.53506	-110.34011	1158.52826	-175.40901	76.00047	1127.63694	-368.86139	-110.32722	1162.30855	-267.65122	-65.85343	1649.94543	-203.07327	-7.51420	1588.98661	-29.33878	4.50087	1631.07120	-378.40924	75.75886	1561.10954	-173.67594	80.69515	1567.73349	-230.36982	-56.47292	1318.93656	22.85117	-153.98926	1217.35607	-28.68232	-150.31328	1235.29401	44.03864	-59.90663	1039.81876	69.17278	-24.25538	949.70581	66.76273	-56.93160	946.46444	86.91536	8.66901	1338.49239	-454.64352	-85.04975	1262.17930	-417.19712	-56.12500	1261.41365	-488.25740	38.67434	1077.67701	-510.70598	73.49768	1004.91394	-501.81739	48.54058	1005.10180	-527.80347	4.79995	1036.96195	-126.25170	-6.12940	1036.82981	-323.42233	13.28867	1039.25724	-134.20474	13.31279	1046.78493	-317.84380	
3	0.02000000	204.21743	598.09292	-92.36496	260.19869	456.75269	-105.88181	256.50740	92.36797	-125.34757	206.02879	69.84347	-192.89487	397.53019	45.80014	-97.19377	435.46813	81.12793	-143.12214	-96.89112	568.38328	-369.65704	-171.33532	374.54198	-331.38434	-425.51007	193.06445	-313.69757	-487.82993	197.70719	-243.55447	-356.88556	52.93333	-354.16234	-305.57739	55.90055	-297.68381	277.67141	345.81179	-117.23418	198.32409	440.49409	-63.12729	212.81011	328.29960	-67.11766	-220.54883	418.00619	-388.98248	-299.37055	333.99448	-362.80207	132.12918	874.99376	-46.80602	185.86871	779.51845	-56.94742	139.29638	728.04141	-51.91622	33.36719	826.48662	-71.42937	87.48753	722.78012	-72.65759	37.34050	847.60874	-391.91808	10.27390	716.16196	-385.31365	-69.56441	871.23725	-403.78152	-96.74302	736.96925	-397.75194	93.74994	1137.64044	-89.09850	-97.42663	1160.16839	-174.73900	89.01347	1129.11408	-367.54780	-97.42116	1163.53304	-267.15283	-53.54499	1651.56525	-200.89628	5.25627	1590.31512	-27.49376	16.47276	1633.29185	-376.47002	88.17818	1563.00803	-172.02636	93.05147	1569.64714	-228.64442	-43.35968	1320.14191	24.28075	-140.77594	1218.60930	-27.39417	-137.04337	1236.34989	45.31777	-47.28221	1040.61388	70.16182	-11.95399	950.48947	67.80462	-44.84007	947.25456	87.77036	20.40393	1340.74005	-452.73771	-73.22378	1264.40575	-414.75537	-44.47736	1263.73984	-485.91315	49.14618	1079.59154	-508.89854	83.15815	1006.35305	-500.21540	58.46609	1006.80251	-526.21726	17.76687	1039.03844	-124.85156	7.25201	1038.19532	-322.04308	26.35789	1041.45238	-132.36346	26.36764	1048.14598	-316.13012	
4	0.03000000	215.55324	599.38382	-91.33265	269.59032	456.94183	-105.36531	257.59126	92.65990	-125.23830	206.62043	70.42563	-192.61692	398.37415	44.76467	-97.37260	436.92784	79.32358	-143.45950	-74.55679	567.33414	-371.32389	-153.31055	375.54604	-333.87975	-412.71969	202.53552	-314.22388	-473.61095	211.50722	-243.50316	-353.55336	57.55819	-353.94247	-301.75410	57.36995	-297.65794	284.65546	345.70835	-116.94552	207.99537	441.84969	-61.58973	220.45188	329.41114	-65.46979	-202.44086	421.13793	-390.05564	-283.34360	339.68449	-363.77526	144.55621	877.15036	-45.47707	197.87167	781.28996	-55.33493	151.07735	729.88540	-50.54371	45.47876	828.47507	-69.84428	99.07156	724.88997	-71.20282	53.94673	848.89675	-391.82932	29.76236	716.72407	-386.64239	-53.48682	870.27795	-402.24315	-77.93836	735.76837	-397.10572	106.41241	1140.06250	-87.59401	-84.63963	1161.90949	-173.93774	101.58227	1130.64992	-366.13630	-84.74952	1164.89238	-266.55476	-41.31598	1653.26690	-198.77773	18.02365	1591.76745	-25.69781	28.38856	1635.59352	-374.55549	100.53217	1564.93976	-170.42243	105.34238	1571.62404	-226.96564	-30.22934	1321.48796	25.71057	-127.58150	1220.00729	-26.02593	-123.75103	1237.56050	46.68727	-34.52905	1041.59390	71.19185	0.55116	951.37791	68.73106	-32.56177	948.20631	88.63451	32.01215	1343.07537	-450.88859	-61.52334	1266.85333	-412.40640	-33.00195	1266.19324	-483.66371	59.56383	1081.64781	-507.13188	92.84475	1008.03178	-498.62105	68.40997	1008.71408	-524.64091	30.54799	1041.19849	-123.36587	20.29195	1039.64214	-320.56853	39.28647	1043.68177	-130.40709	39.07050	1049.60738	-314.28133	
5	0.04000000	226.20373	600.49131	-90.49343	278.28473	457.03346	-105.05343	258.37876	93.03968	-125.13908	207.08975	70.86913	-192.40822	399.00157	44.02975	-97.50755	438.09797	77.81326	-143.78205	-51.47518	566.37449	-373.02476	-134.36967	376.89260	-336.32071	-398.58960	212.33077	-314.92904	-457.77383	225.73733	-243.74230	-349.35887	63.09785	-353.75365	-297.17662	59.51741	-297.83538	291.04418	345.54122	-116.84497	216.95911	443.02210	-60.34502	227.44423	330.39113	-64.18300	-183.17864	424.53043	-391.21699	-266.20030	345.66775	-364.85155	156.35971	878.90525	-43.96540	209.20844	782.60996	-53.76369	162.15793	731.46625	-49.25218	57.09132	830.49417	-68.46526	109.97654	726.78929	-69.99000	70.68929	850.26473	-391.93286	49.67875	717.49953	-388.07193	-37.25289	869.26403	-400.87621	-58.66644	734.41711	-396.80504	118.98109	1142.50806	-86.04223	-72.02238	1163.76490	-172.95469	113.58349	1132.25956	-364.63883	-72.38568	1166.40249	-265.80010	-29.20187	1655.06077	-196.74465	30.76555	1593.36581	-23.96783	40.21953	1637.97020	-372.68035	112.78705	1566.90509	-168.88542	117.54505	1573.66737	-225.35473	-17.09414	1322.99701	27.14542	-114.43679	1221.57140	-24.55002	-110.44611	1238.95861	48.17392	-21.62819	1042.79864	72.27527	13.29408	952.42554	69.56154	-20.03994	949.36454	89.52753	43.43419	1345.50230	-449.12359	-50.01692	1269.53167	-410.20183	-21.75861	1268.78070	-481.55468	69.92111	1083.86919	-505.42052	102.58043	1009.97551	-497.03838	78.37351	1010.86425	-523.08449	43.10252	1043.42695	-121.80056	32.87663	1041.18666	-319.00036	52.01892	1045.95083	-128.33674	51.30684	1051.18009	-312.29201	
6	0.05000000	236.00309	601.35676	-89.79871	286.10224	456.98209	-104.84196	258.88787	93.46814	-125.06706	207.43345	71.18249	-192.27499	399.42788	43.54391	-97.59176	438.97912	76.56200	-144.07109	-27.68341	565.59982	-374.74778	-114.43268	378.64576	-338.72137	-382.95677	222.30666	-315.82845	-440.08549	240.21718	-244.29183	-344.15656	69.52951	-353.59501	-291.73097	62.35303	-298.24333	296.71145	345.26769	-116.83909	224.95814	443.95245	-59.43097	233.53681	331.17945	-63.31216	-162.71587	428.21792	-392.48383	-247.83897	351.91283	-366.03577	167.51861	880.27046	-42.31895	219.85112	783.48287	-52.28317	172.51944	732.78915	-48.05597	68.15180	832.54134	-67.29481	120.15845	728.48731	-69.00588	87.53226	851.76931	-392.19425	69.95006	718.54521	-389.55699	-20.87830	868.24999	-399.69345	-38.95295	733.00305	-396.83956	131.46122	1144.91004	-84.50359	-59.60126	1165.72256	-171.75839	124.99263	1133.94926	-363.11429	-60.35694	1168.04010	-264.83262	-17.22783	1656.93677	-194.81548	43.45175	1595.10305	-22.31284	51.93494	1640.38535	-370.86055	124.91898	1568.89487	-167.43354	129.64419	1575.76167	-223.83073	-3.97919	1324.65827	28.59413	-101.38041	1223.28689	-22.95008	-97.15204	1240.53843	49.79031	-8.58663	1044.22902	73.41811	26.26468	953.67450	70.35348	-7.24352	950.74274	90.47487	54.62405	1347.99573	-447.46782	-38.76646	1272.38036	-408.19022	-10.78088	1271.46718	-479.62533	80.22475	1086.23881	-503.77529	112.38962	1012.14411	-495.47343	88.36013	1013.22190	-521.55998	55.43530	1045.67331	-120.19713	44.95492	1042.82840	-317.37680	64.51308	1048.26315	-126.20125	63.03226	1052.84663	-310.20915	
7	0.06000000	244.85759	601.95020	-89.17328	292.94367	456.76004	-104.59442	259.18515	93.88796	-125.04668	207.66708	71.39478	-192.21323	399.69439	43.22128	-97.62513	439.60839	75.49964	-144.31478	-3.32854	565.12644	-376.47940	-93.50326	380.82708	-341.10853	-365.78941	232.22261	-316.90921	-420.48062	254.62813	-245.12368	-337.83921	76.67987	-353.47237	-285.32615	65.79141	-298.89045	301.60047	344.86069	-116.80512	231.81447	444.61234	-58.84197	238.55426	331.74100	-62.86265	-141.15055	432.18989	-393.85645	-228.27978	358.32609	-367.32623	178.10458	881.32867	-40.62535	229.84824	783.98831	-50.93197	182.22168	733.90753	-46.95467	78.64778	834.62098	-66.30074	129.65400	730.02518	-68.18887	104.41652	853.47565	-392.55338	90.42984	719.91102	-391.03609	-4.40738	867.32123	-398.68145	-18.89652	731.66487	-397.16422	143.86466	1147.19389	-83.06036	-47.38786	1167.75468	-170.34168	135.87802	1135.71984	-361.65156	-48.64518	1169.75606	-263.60813	-5.40344	1658.87264	-192.99285	56.05465	1596.95192	-20.73407	63.50095	1642.78708	-369.11228	136.92061	1570.89662	-166.08061	141.62483	1577.88051	-222.40991	9.08311	1326.44048	30.06781	-88.44704	1225.11614	-21.22052	-83.90023	1242.26258	51.53753	4.57678	1045.85816	74.62077	39.42840	955.14276	71.16857	5.83682	952.32722	91.49848	65.55491	1350.51183	-445.94133	-27.81578	1275.29698	-406.40670	-0.07693	1274.19032	-477.90259	90.48507	1088.70797	-502.20586	122.28680	1014.45947	-493.93631	98.38214	1015.71524	-520.07833	67.58604	1047.87322	-118.61817	56.54101	1044.55602	-315.75858	76.74086	1050.62457	-124.08352	74.27565	1054.57223	-308.11952	
